<svg xmlns="http://www.w3.org/2000/svg" style="display: none;">
  <!-- Palette/Design Icon -->
  <symbol id="icon-palette" viewBox="0 0 24 24" fill="none" stroke="currentColor" stroke-width="2">
    <path d="M12 2C6.48 2 2 6.48 2 12s4.48 10 10 10c.55 0 1-.45 1-1v-4H8c-.55 0-1-.45-1-1s.45-1 1-1h5V8c0-.55.45-1 1-1s1 .45 1 1v3h2c.55 0 1 .45 1 1s-.45 1-1 1h-2v4c0 .55.45 1 1 1 5.52 0 10-4.48 10-10S17.52 2 12 2z"/>
  </symbol>
  
  <!-- Package/Box Icon -->
  <symbol id="icon-package" viewBox="0 0 24 24" fill="none" stroke="currentColor" stroke-width="2">
    <path d="M12 2L2 7l10 5 10-5-10-5zM2 17l10 5 10-5M2 12l10 5 10-5"/>
  </symbol>
  
  <!-- Rocket Icon -->
  <symbol id="icon-rocket" viewBox="0 0 24 24" fill="none" stroke="currentColor" stroke-width="2">
    <path d="M4.5 16.5c-1.5 1.26-2 5-2 5s3.74-.5 5-2c.71-.84.7-2.13-.09-2.91l-2.91-2.91c-.78-.78-2.07-.8-2.91-.09zM15 7l-4-4-4 4M11 3v4M7 7h8M12 11v10M8 21l4-4 4 4"/>
  </symbol>
  
  <!-- Book/Documentation Icon -->
  <symbol id="icon-book" viewBox="0 0 24 24" fill="none" stroke="currentColor" stroke-width="2">
    <path d="M4 19.5A2.5 2.5 0 0 1 6.5 17H20M4 19.5A2.5 2.5 0 0 0 6.5 22H20M4 19.5V4.5A2.5 2.5 0 0 1 6.5 2H20v20H6.5A2.5 2.5 0 0 1 4 19.5z"/>
  </symbol>
  
  <!-- Code/Computer Icon -->
  <symbol id="icon-code" viewBox="0 0 24 24" fill="none" stroke="currentColor" stroke-width="2">
    <polyline points="16 18 22 12 16 6"/><polyline points="8 6 2 12 8 18"/>
  </symbol>
  
  <!-- GitHub Icon -->
  <symbol id="icon-github" viewBox="0 0 24 24" fill="currentColor">
    <path d="M12 0c-6.626 0-12 5.373-12 12 0 5.302 3.438 9.8 8.207 11.387.599.111.793-.261.793-.577v-2.234c-3.338.726-4.033-1.416-4.033-1.416-.546-1.387-1.333-1.756-1.333-1.756-1.089-.745.083-.729.083-.729 1.205.084 1.839 1.237 1.839 1.237 1.07 1.834 2.807 1.304 3.492.997.107-.775.418-1.305.762-1.604-2.665-.305-5.467-1.334-5.467-5.931 0-1.311.469-2.381 1.236-3.221-.124-.303-.535-1.524.117-3.176 0 0 1.008-.322 3.301 1.23.957-.266 1.983-.399 3.003-.404 1.02.005 2.047.138 3.006.404 2.291-1.552 3.297-1.23 3.297-1.23.653 1.653.242 2.874.118 3.176.77.84 1.235 1.911 1.235 3.221 0 4.609-2.807 5.624-5.479 5.921.43.372.823 1.102.823 2.222v3.293c0 .319.192.694.801.576 4.765-1.589 8.199-6.086 8.199-11.386 0-6.627-5.373-12-12-12z"/>
  </symbol>
  
  <!-- Copy Icon -->
  <symbol id="icon-copy" viewBox="0 0 24 24" fill="none" stroke="currentColor" stroke-width="2">
    <rect x="9" y="9" width="13" height="13" rx="2" ry="2"/><path d="M5 15H4a2 2 0 0 1-2-2V4a2 2 0 0 1 2-2h9a2 2 0 0 1 2 2v1"/>
  </symbol>
  
  <!-- Check Icon -->
  <symbol id="icon-check" viewBox="0 0 24 24" fill="none" stroke="currentColor" stroke-width="2">
    <polyline points="20 6 9 17 4 12"/>
  </symbol>
  
  <!-- Target/Goal Icon -->
  <symbol id="icon-target" viewBox="0 0 24 24" fill="none" stroke="currentColor" stroke-width="2">
    <circle cx="12" cy="12" r="10"/><circle cx="12" cy="12" r="6"/><circle cx="12" cy="12" r="2"/>
  </symbol>
  
  <!-- Sparkles/Star Icon -->
  <symbol id="icon-sparkles" viewBox="0 0 24 24" fill="none" stroke="currentColor" stroke-width="2">
    <path d="M12 2L15.09 8.26L22 9.27L17 14.14L18.18 21.02L12 17.77L5.82 21.02L7 14.14L2 9.27L8.91 8.26L12 2Z"/>
  </symbol>
  
  <!-- Grid/Layout Icon -->
  <symbol id="icon-grid" viewBox="0 0 24 24" fill="none" stroke="currentColor" stroke-width="2">
    <rect x="3" y="3" width="7" height="7"/><rect x="14" y="3" width="7" height="7"/><rect x="14" y="14" width="7" height="7"/><rect x="3" y="14" width="7" height="7"/>
  </symbol>
  
  <!-- Type/Text Icon -->
  <symbol id="icon-type" viewBox="0 0 24 24" fill="none" stroke="currentColor" stroke-width="2">
    <polyline points="4 7 4 4 20 4 20 7"/><line x1="9" y1="20" x2="15" y2="20"/><line x1="12" y1="4" x2="12" y2="20"/>
  </symbol>
  
  <!-- Color Palette Icon -->
  <symbol id="icon-color" viewBox="0 0 24 24" fill="none" stroke="currentColor" stroke-width="2">
    <circle cx="13.5" cy="6.5" r=".5" fill="currentColor"/><circle cx="17.5" cy="10.5" r=".5" fill="currentColor"/><circle cx="8.5" cy="7.5" r=".5" fill="currentColor"/><circle cx="6.5" cy="12.5" r=".5" fill="currentColor"/><path d="M12 2C6.5 2 2 6.5 2 12s4.5 10 10 10c.9 0 1.75-.15 2.54-.42M21.79 13.5c.2-.9.3-1.85.3-2.8 0-5.5-4.5-10-10-10"/>
    <path d="M22 2l-5 5M17 2l5 5"/>
  </symbol>
  
  <!-- Button Icon -->
  <symbol id="icon-button" viewBox="0 0 24 24" fill="none" stroke="currentColor" stroke-width="2">
    <rect x="3" y="8" width="18" height="8" rx="2"/>
    <line x1="7" y1="12" x2="17" y2="12"/>
  </symbol>
  
  <!-- Card Icon -->
  <symbol id="icon-card" viewBox="0 0 24 24" fill="none" stroke="currentColor" stroke-width="2">
    <rect x="3" y="4" width="18" height="16" rx="2"/>
    <line x1="3" y1="10" x2="21" y2="10"/>
  </symbol>
  
  <!-- Form Icon -->
  <symbol id="icon-form" viewBox="0 0 24 24" fill="none" stroke="currentColor" stroke-width="2">
    <rect x="3" y="4" width="18" height="16" rx="2"/>
    <line x1="7" y1="8" x2="17" y2="8"/><line x1="7" y1="12" x2="17" y2="12"/><line x1="7" y1="16" x2="12" y2="16"/>
  </symbol>
  
  <!-- Navigation Icon -->
  <symbol id="icon-nav" viewBox="0 0 24 24" fill="none" stroke="currentColor" stroke-width="2">
    <line x1="3" y1="12" x2="21" y2="12"/><line x1="3" y1="6" x2="21" y2="6"/><line x1="3" y1="18" x2="21" y2="18"/>
  </symbol>
  
  <!-- Modal/Window Icon -->
  <symbol id="icon-modal" viewBox="0 0 24 24" fill="none" stroke="currentColor" stroke-width="2">
    <rect x="2" y="4" width="20" height="16" rx="2"/><line x1="2" y1="8" x2="22" y2="8"/><circle cx="18" cy="6" r="1"/>
  </symbol>
  
  <!-- Tools/Wrench Icon -->
  <symbol id="icon-tools" viewBox="0 0 24 24" fill="none" stroke="currentColor" stroke-width="2">
    <path d="M14.7 6.3a1 1 0 0 0 0 1.4l1.6 1.6a1 1 0 0 0 1.4 0l3.77-3.77a6 6 0 0 1-7.94 7.94l-6.91 6.91a2.12 2.12 0 0 1-3-3l6.91-6.91a6 6 0 0 1 7.94-7.94l-3.76 3.76z"/>
  </symbol>
  
  <!-- Settings/Gear Icon -->
  <symbol id="icon-settings" viewBox="0 0 24 24" fill="none" stroke="currentColor" stroke-width="2">
    <circle cx="12" cy="12" r="3"/><path d="M12 1v6m0 6v6M5.64 5.64l4.24 4.24m4.24 4.24l4.24 4.24M1 12h6m6 0h6M5.64 18.36l4.24-4.24m4.24-4.24l4.24-4.24"/>
  </symbol>
  
  <!-- Link/Chain Icon -->
  <symbol id="icon-link" viewBox="0 0 24 24" fill="none" stroke="currentColor" stroke-width="2">
    <path d="M10 13a5 5 0 0 0 7.54.54l3-3a5 5 0 0 0-7.07-7.07l-1.72 1.71"/><path d="M14 11a5 5 0 0 0-7.54-.54l-3 3a5 5 0 0 0 7.07 7.07l1.71-1.71"/>
  </symbol>
  
  <!-- Lightbulb/Idea Icon -->
  <symbol id="icon-lightbulb" viewBox="0 0 24 24" fill="none" stroke="currentColor" stroke-width="2">
    <path d="M9 21h6M12 3a6 6 0 0 1 6 6c0 2.22-1.21 4.16-3 5.19V15a1 1 0 0 1-1 1h-4a1 1 0 0 1-1-1v-.81C7.21 13.16 6 11.22 6 9a6 6 0 0 1 6-6z"/>
  </symbol>
  
  <!-- Celebration/Party Icon -->
  <symbol id="icon-celebration" viewBox="0 0 24 24" fill="none" stroke="currentColor" stroke-width="2">
    <path d="M12 2L15.09 8.26L22 9.27L17 14.14L18.18 21.02L12 17.77L5.82 21.02L7 14.14L2 9.27L8.91 8.26L12 2Z"/>
    <path d="M8 14l-2 2M16 14l2 2M14 8l2-2M10 8l-2-2"/>
  </symbol>
  
  <!-- Home Icon -->
  <symbol id="icon-home" viewBox="0 0 24 24" fill="none" stroke="currentColor" stroke-width="2">
    <path d="M3 9l9-7 9 7v11a2 2 0 0 1-2 2H5a2 2 0 0 1-2-2z"/><polyline points="9 22 9 12 15 12 15 22"/>
  </symbol>
  
  <!-- Chart/Stats Icon -->
  <symbol id="icon-chart" viewBox="0 0 24 24" fill="none" stroke="currentColor" stroke-width="2">
    <line x1="18" y1="20" x2="18" y2="10"/><line x1="12" y1="20" x2="12" y2="4"/><line x1="6" y1="20" x2="6" y2="14"/>
  </symbol>
  
  <!-- Users Icon -->
  <symbol id="icon-users" viewBox="0 0 24 24" fill="none" stroke="currentColor" stroke-width="2">
    <path d="M17 21v-2a4 4 0 0 0-4-4H5a4 4 0 0 0-4 4v2"/><circle cx="9" cy="7" r="4"/><path d="M23 21v-2a4 4 0 0 0-3-3.87"/><path d="M16 3.13a4 4 0 0 1 0 7.75"/>
  </symbol>
  
  <!-- Shopping Cart Icon -->
  <symbol id="icon-cart" viewBox="0 0 24 24" fill="none" stroke="currentColor" stroke-width="2">
    <circle cx="9" cy="21" r="1"/><circle cx="20" cy="21" r="1"/><path d="M1 1h4l2.68 13.39a2 2 0 0 0 2 1.61h9.72a2 2 0 0 0 2-1.61L23 6H6"/>
  </symbol>
  
  <!-- Heart Icon -->
  <symbol id="icon-heart" viewBox="0 0 24 24" fill="none" stroke="currentColor" stroke-width="2">
    <path d="M20.84 4.61a5.5 5.5 0 0 0-7.78 0L12 5.67l-1.06-1.06a5.5 5.5 0 0 0-7.78 7.78l1.06 1.06L12 21.23l7.78-7.78 1.06-1.06a5.5 5.5 0 0 0 0-7.78z"/>
  </symbol>
  
  <!-- Check Circle Icon -->
  <symbol id="icon-check-circle" viewBox="0 0 24 24" fill="none" stroke="currentColor" stroke-width="2">
    <path d="M22 11.08V12a10 10 0 1 1-5.93-9.14"/><polyline points="22 4 12 14.01 9 11.01"/>
  </symbol>
</svg>

